<?xml version="1.0" ?><svg id="Layer_1" style="enable-background:new 0 0 750 750;" version="1.1" viewBox="0 0 750 750" xml:space="preserve" xmlns="http://www.w3.org/2000/svg" xmlns:xlink="http://www.w3.org/1999/xlink"><style type="text/css">
	.st0{fill:#414042;}
</style><g><path style="fill:#ff9d2a;" class="st0" d="M650.1,255.8c-0.7-0.7-1.5-1.3-2.4-1.9c0.3-3.7,0.4-7.3,0.4-11c0-55.9-28.9-108.1-81.4-147.2   C515.4,57.5,447.3,36.4,375,36.4c-72.3,0-140.4,21.1-191.7,59.3c-52.5,39.1-81.4,91.3-81.4,147.2c0,3.7,0.1,7.4,0.4,11   c-0.8,0.5-1.7,1.1-2.4,1.9c-24.6,24.6-38.1,57.3-38.1,92.1v27.2v313.2c0,14,11.4,25.3,25.3,25.3h575.9c14,0,25.3-11.4,25.3-25.3   V375.1v-27.2C688.2,313.1,674.7,280.4,650.1,255.8z M86.8,668.6v-291l205.7,172.6L86.8,668.6z M372,533.3c1.9-1.1,4.2-1.1,6.1,0   l269.9,155.3H102.1L372,533.3z M539.8,485.5c4.4,4.4,10.3,6.8,16.4,6.8c3,0,6-0.6,8.9-1.8c8.7-3.6,14.3-12,14.3-21.4v-21.2   l83.8-70.3v291L457.6,550.2l79.9-67.1L539.8,485.5z M663.2,347.9v4.2c-3.8-1.1-8.1-0.3-11.4,2.5l-72.4,60.8v-32.4   c0-1.8,0.7-3.5,2-4.6c30.7-26.8,51.6-58.9,61-93.3C655.9,303,663.2,324.9,663.2,347.9z M375,61.4c136.8,0,248.1,81.4,248.1,181.5   c0,42.5-20.6,83.9-58.1,116.5c-6.7,5.9-10.6,14.4-10.6,23.4v81.9l-48-48c-6-6-13.9-9.2-22-9.2c-3.2,0-6.5,0.5-9.7,1.5   c-31.5,10.2-65.1,15.3-99.7,15.3c-136.8,0-248.1-81.4-248.1-181.5S238.2,61.4,375,61.4z M107.5,285.1c10.8,39.7,36.7,76,75.7,105.1   c51.4,38.2,119.5,59.3,191.7,59.3c37.3,0,73.4-5.6,107.4-16.5c2.2-0.7,4.7-0.1,6.3,1.5l31,31l-85.2,71.5l-44-25.3   c-9.6-5.5-21.5-5.5-31,0l-44,25.3L98.2,354.5c-3.3-2.8-7.6-3.5-11.4-2.5v-4.2C86.8,324.9,94,303.1,107.5,285.1z"/><path style="fill:#ff9d2a;" class="st0" d="M245.2,281.3c26.2,0,47.5-21.3,47.5-47.5s-21.3-47.5-47.5-47.5s-47.5,21.3-47.5,47.5S219,281.3,245.2,281.3z    M245.2,211.2c12.4,0,22.5,10.1,22.5,22.5s-10.1,22.5-22.5,22.5s-22.5-10.1-22.5-22.5S232.8,211.2,245.2,211.2z"/><path style="fill:#ff9d2a;" class="st0" d="M504.8,281.3c26.2,0,47.5-21.3,47.5-47.5s-21.3-47.5-47.5-47.5s-47.5,21.3-47.5,47.5S478.6,281.3,504.8,281.3z    M504.8,211.2c12.4,0,22.5,10.1,22.5,22.5s-10.1,22.5-22.5,22.5c-12.4,0-22.5-10.1-22.5-22.5S492.3,211.2,504.8,211.2z"/><path style="fill:#ff9d2a;" class="st0" d="M375,281.3c26.2,0,47.5-21.3,47.5-47.5s-21.3-47.5-47.5-47.5s-47.5,21.3-47.5,47.5S348.8,281.3,375,281.3z    M375,211.2c12.4,0,22.5,10.1,22.5,22.5s-10.1,22.5-22.5,22.5c-12.4,0-22.5-10.1-22.5-22.5S362.6,211.2,375,211.2z"/></g></svg>